<svg width="215" height="215" viewBox="0 0 215 215" fill="none" xmlns="http://www.w3.org/2000/svg">
<g clip-path="url(#clip0_466_613)">
<path d="M3.93709 126.663L1.87823 127.003L0.798828 120.422L2.85769 120.082L3.93709 126.663ZM16.6101 126.603L2.21804 128.963L1.83825 126.623L16.2303 124.263L16.6101 126.603ZM9.99373 125.663L7.93487 126.003L6.91543 119.802L8.97429 119.462L9.99373 125.663ZM16.2902 124.643L14.2314 124.983L13.132 118.221L15.1908 117.881L16.2902 124.643Z" fill="white"/>
<path d="M14.9717 117.102L7.01611 112.061L7.37591 112.021L0.3598 117.062L0.279845 114.381L5.43698 110.74L5.417 110.36L0.0799557 107.02L0 104.439L7.35592 109.16L7.01611 109.22L14.5719 103.599L14.6519 106.3L8.95503 110.48L8.97502 110.86L14.9117 114.541L14.9717 117.102Z" fill="white"/>
<path d="M14.772 102L0.160156 100.439L0.420012 98.0588L15.0319 99.6191L14.772 102ZM10.2346 99.5191L8.15572 99.299L8.47554 96.2785C8.53551 95.6383 8.47554 95.0982 8.27565 94.6581C8.07577 94.2181 7.77593 93.858 7.35616 93.5779C6.95639 93.2979 6.47665 93.1379 5.93695 93.0778C5.37726 93.0178 4.87754 93.0778 4.41779 93.2579C3.95805 93.4379 3.59825 93.718 3.3184 94.118C3.03856 94.5181 2.85866 95.0182 2.79869 95.6583L2.47887 98.6789L0.400023 98.4589L0.699857 95.7183C0.81979 94.5181 1.13961 93.5179 1.61935 92.7378C2.09908 91.9576 2.71874 91.3775 3.47832 91.0175C4.23789 90.6574 5.09742 90.5374 6.07687 90.6374L6.3967 90.6774C7.35616 90.7774 8.17571 91.0775 8.85533 91.5976C9.53496 92.1177 10.0147 92.7978 10.3145 93.658C10.6144 94.5381 10.6943 95.5583 10.5744 96.7785L10.2346 99.5191Z" fill="white"/>
<path d="M16.3298 89.7769L2.1377 86.3762L2.69738 84.0558L16.8895 87.4564L16.3298 89.7769ZM4.61632 84.9359L2.59744 84.4558L4.13659 77.9746L6.15547 78.4547L4.61632 84.9359ZM10.593 86.3562L8.57413 85.8761L10.0333 79.775L12.0522 80.255L10.593 86.3562ZM16.7896 87.8565L14.7707 87.3764L16.3498 80.7151L18.3687 81.1952L16.7896 87.8565Z" fill="white"/>
<path d="M19.0908 78.8345L5.39844 73.5335L6.25796 71.2931L19.9504 76.5941L19.0908 78.8345ZM14.9331 75.4939L13.0542 74.7738L14.4334 71.2331C14.6333 70.693 14.7133 70.1929 14.6333 69.7328C14.5534 69.2727 14.3735 68.8526 14.0736 68.4926C13.7738 68.1325 13.354 67.8725 12.8543 67.6724C12.3546 67.4724 11.8748 67.4124 11.4151 67.4724C10.9554 67.5324 10.5356 67.7124 10.1558 68.0125C9.77601 68.3125 9.49616 68.7326 9.27629 69.2527L7.89705 72.7934L5.97812 72.0132L7.23742 68.7726C7.6372 67.7324 8.15691 66.8723 8.77656 66.2321C9.39622 65.592 10.0958 65.1719 10.8954 64.9919C11.6949 64.8119 12.5944 64.9119 13.5739 65.312L13.8737 65.432C14.8732 65.8121 15.5928 66.3522 16.0725 67.0123C16.5323 67.6924 16.7721 68.4726 16.7921 69.3527C16.8121 70.2329 16.6122 71.1931 16.2124 72.2533L14.9331 75.4939ZM22.329 70.493L14.6733 72.4933L15.6528 69.9529L23.3685 67.8124L22.329 70.493Z" fill="white"/>
<path d="M12.4498 61.911L10.5908 60.8908L15.9079 51.189L17.7668 52.2092L12.4498 61.911ZM25.4826 64.1114L14.1888 57.9302L15.3482 55.8298L26.6219 62.011L25.4826 64.1114Z" fill="white"/>
<path d="M36.8387 47.3887L22.7266 41.3076L24.3657 39.4672L36.8587 44.9482L35.9392 45.3083L37.4584 43.608L37.1586 44.6082L30.0425 33.086L31.6416 31.2856L39.5572 44.3681L36.8387 47.3887Z" fill="white"/>
<path d="M44.1129 39.7681L34.2783 28.966L36.0573 27.3457L45.8919 38.1478L44.1129 39.7681Z" fill="white"/>
<path d="M48.415 35.846L39.7598 23.8637L41.6987 22.4635L50.3539 34.4457L48.415 35.846ZM50.0341 34.6858L48.7348 32.8854L51.4333 30.9251C52.0929 30.445 52.6126 29.9249 52.9724 29.3248C53.3322 28.7447 53.5721 28.1245 53.6721 27.4844C53.772 26.8443 53.712 26.1842 53.5321 25.544C53.3522 24.9039 53.0524 24.2638 52.6126 23.6837C52.1529 23.0436 51.6532 22.5435 51.0935 22.1634C50.5338 21.7833 49.9341 21.5633 49.3145 21.4633C48.6748 21.3633 48.0352 21.4033 47.3755 21.5833C46.7159 21.7633 46.0563 22.0834 45.3966 22.5635L42.6981 24.5239L41.3989 22.7235L43.9374 20.8832C45.0168 20.103 46.0563 19.6029 47.0757 19.3429C48.0951 19.1028 49.0746 19.0428 50.0141 19.2228C50.9536 19.4029 51.7931 19.7229 52.5527 20.223C53.3123 20.7231 53.9519 21.3432 54.4916 22.0834L54.7514 22.4435C55.2512 23.1436 55.631 23.9237 55.8708 24.8039C56.1107 25.6841 56.1707 26.6042 56.0507 27.5444C55.9308 28.4846 55.591 29.4048 55.0313 30.325C54.4916 31.2451 53.672 32.0853 52.6126 32.8654L50.0341 34.6858Z" fill="white"/>
<path d="M60.746 27.2645L53.9697 14.3421L56.0686 13.2418L62.8648 26.1643L60.746 27.2645ZM56.6882 15.2622L55.7287 13.4219L61.6255 10.3213L62.5849 12.1616L56.6882 15.2622ZM59.5266 20.7033L58.5672 18.8629L64.1241 15.9424L65.0836 17.7827L59.5266 20.7033ZM62.505 26.3443L61.5455 24.504L67.6022 21.3234L68.5616 23.1637L62.505 26.3443Z" fill="white"/>
<path d="M77.0583 20.2641C75.819 20.7042 74.6597 20.8642 73.6202 20.7242C72.5608 20.6042 71.6213 20.2841 70.7818 19.784C69.9423 19.2639 69.2427 18.6438 68.663 17.9237C68.0833 17.2035 67.6835 16.4634 67.4237 15.7033L67.2837 15.2832C67.0039 14.443 66.844 13.5629 66.864 12.6427C66.864 11.7025 67.0639 10.8023 67.4037 9.90216C67.7635 9.00198 68.3232 8.20183 69.0828 7.46169C69.8423 6.74155 70.8218 6.16144 72.0211 5.74136C73.2205 5.32128 74.3598 5.16125 75.3992 5.26127C76.4387 5.36129 77.3781 5.66135 78.2177 6.14144C79.0572 6.62153 79.7768 7.22165 80.3565 7.94178C80.9362 8.66192 81.3759 9.44207 81.6758 10.2822L81.8157 10.7023C82.0755 11.4625 82.2155 12.3026 82.2155 13.2228C82.2155 14.143 82.0356 15.0631 81.7157 16.0033C81.3759 16.9235 80.8362 17.7637 80.0767 18.5038C79.2771 19.2439 78.2776 19.824 77.0583 20.2641ZM76.3187 18.1637C77.0783 17.9037 77.698 17.5236 78.2177 17.0435C78.7174 16.5634 79.1172 16.0033 79.377 15.3632C79.6369 14.7431 79.7768 14.083 79.7768 13.3828C79.7768 12.6827 79.6569 12.0026 79.417 11.3024C79.1572 10.5623 78.8173 9.94216 78.3776 9.38206C77.9378 8.84195 77.4181 8.40187 76.8384 8.08181C76.2588 7.76175 75.6191 7.56171 74.9195 7.5217C74.2199 7.46169 73.5003 7.58171 72.7407 7.84176C71.9811 8.10181 71.3615 8.48189 70.8418 8.94197C70.3221 9.40206 69.9423 9.96217 69.6824 10.5823C69.4226 11.2024 69.2826 11.8625 69.2826 12.5627C69.2826 13.2628 69.4026 13.9829 69.6624 14.7031C69.8823 15.4032 70.2221 16.0033 70.6619 16.5634C71.1016 17.1035 71.6213 17.5436 72.201 17.8637C72.8007 18.2037 73.4403 18.3838 74.1399 18.4638C74.8396 18.5238 75.5592 18.4238 76.3187 18.1637Z" fill="white"/>
<path d="M90.4505 16.2431L88.4316 1.78032L90.7903 1.46026L92.8092 15.923L90.4505 16.2431ZM90.6904 3.58066L90.4105 1.52027L97.0069 0.600098L97.2867 2.66049L90.6904 3.58066ZM91.5299 9.66182L91.2501 7.60143L97.4666 6.74127L97.7465 8.80166L91.5299 9.66182ZM92.4094 15.983L92.1296 13.9226L98.9058 12.9825L99.1857 15.0428L92.4094 15.983Z" fill="white"/>
<path d="M101.544 14.7823L101.784 -0.000488281L104.182 0.0395193L103.943 14.8223L101.544 14.7823ZM103.543 14.8223L103.583 12.6019L106.921 12.6619C107.741 12.6819 108.46 12.5619 109.1 12.3019C109.739 12.0618 110.299 11.7017 110.759 11.2416C111.219 10.7816 111.578 10.2415 111.818 9.60134C112.058 8.98122 112.198 8.28109 112.198 7.56095C112.218 6.7808 112.098 6.06066 111.878 5.44055C111.658 4.82043 111.319 4.26032 110.879 3.80023C110.439 3.34015 109.899 2.98008 109.26 2.72003C108.62 2.45998 107.9 2.31995 107.081 2.31995L103.743 2.25994L103.783 0.0395193L106.921 0.0995307C108.24 0.119535 109.38 0.339576 110.359 0.759656C111.339 1.17974 112.138 1.71984 112.778 2.41997C113.417 3.12011 113.897 3.88025 114.197 4.74041C114.497 5.60058 114.657 6.48074 114.637 7.38092V7.821C114.617 8.68116 114.457 9.52132 114.117 10.3815C113.777 11.2417 113.277 12.0018 112.598 12.6619C111.938 13.342 111.119 13.8822 110.139 14.2822C109.16 14.6823 108 14.8823 106.681 14.8623L103.543 14.8223Z" fill="white"/>
<path d="M116.854 15.2635L118.514 0.760742L120.892 1.0408L119.233 15.5436L116.854 15.2635Z" fill="white"/>
<path d="M123.811 3.44075L124.25 1.36035L135.064 3.64079L134.625 5.72118L123.811 3.44075ZM125.47 16.5432L128.128 3.94084L130.467 4.44094L127.808 17.0433L125.47 16.5432Z" fill="white"/>
<path d="M139.441 20.8831C138.202 20.423 137.223 19.8229 136.483 19.0428C135.743 18.2826 135.224 17.4425 134.904 16.5023C134.584 15.5621 134.424 14.6419 134.444 13.7218C134.464 12.8016 134.624 11.9614 134.904 11.2013L135.064 10.7812C135.364 9.96106 135.823 9.18091 136.423 8.46077C137.023 7.74064 137.742 7.16052 138.582 6.70044C139.421 6.24035 140.381 5.9603 141.42 5.88028C142.46 5.80027 143.579 5.9803 144.798 6.42038C145.998 6.86047 146.957 7.46058 147.697 8.20072C148.436 8.94086 148.976 9.76102 149.316 10.6612C149.656 11.5614 149.836 12.4815 149.816 13.4217C149.796 14.3619 149.636 15.2421 149.336 16.0622L149.176 16.4823C148.916 17.2624 148.476 18.0026 147.877 18.7027C147.277 19.4229 146.577 20.023 145.718 20.5231C144.878 21.0232 143.919 21.3232 142.859 21.4232C141.82 21.5233 140.681 21.3432 139.441 20.8831ZM140.221 18.8027C140.98 19.0828 141.7 19.2028 142.4 19.1428C143.099 19.0828 143.759 18.9028 144.359 18.5827C144.958 18.2626 145.478 17.8426 145.938 17.3025C146.377 16.7624 146.737 16.1622 146.997 15.4821C147.257 14.762 147.397 14.0418 147.397 13.3417C147.397 12.6416 147.277 11.9814 147.037 11.3613C146.797 10.7412 146.417 10.1811 145.918 9.70101C145.418 9.22092 144.798 8.84084 144.039 8.56079C143.279 8.28074 142.56 8.16071 141.86 8.20072C141.16 8.24073 140.521 8.42076 139.921 8.72082C139.321 9.02088 138.802 9.46096 138.342 10.0011C137.902 10.5412 137.542 11.1613 137.262 11.9014C137.003 12.5816 136.883 13.2817 136.863 13.9818C136.863 14.682 136.983 15.3421 137.223 15.9622C137.462 16.6023 137.842 17.1624 138.342 17.6625C138.842 18.1426 139.461 18.5227 140.221 18.8027Z" fill="white"/>
<path d="M148.657 24.3244L155.913 11.542L157.992 12.7222L150.716 25.5046L148.657 24.3244ZM152.575 20.7037L153.574 18.9434L156.873 20.8238C157.372 21.1038 157.852 21.2438 158.332 21.2438C158.812 21.2438 159.251 21.1238 159.631 20.8638C160.031 20.6237 160.351 20.2436 160.631 19.7836C160.89 19.3235 161.03 18.8634 161.05 18.3833C161.07 17.9232 160.95 17.4831 160.711 17.063C160.471 16.643 160.091 16.3029 159.611 16.0228L156.313 14.1425L157.332 12.3421L160.351 14.0625C161.33 14.6226 162.09 15.2427 162.629 15.9428C163.189 16.643 163.489 17.4031 163.549 18.2233C163.609 19.0434 163.369 19.9036 162.849 20.8438L162.689 21.1238C162.17 22.044 161.53 22.7041 160.79 23.0642C160.051 23.4243 159.251 23.5443 158.372 23.4443C157.492 23.3242 156.573 22.9842 155.593 22.4441L152.575 20.7037ZM156.433 28.7453L155.573 20.8638L157.932 22.204L158.912 30.1455L156.433 28.7453Z" fill="white"/>
<path d="M196.453 81.5754L210.625 78.1147L211.185 80.4352L197.013 83.8958L196.453 81.5754ZM196.913 83.4958L198.932 82.9957L200.551 89.6369L198.532 90.137L196.913 83.4958ZM203.109 81.9955L205.128 81.4954L206.607 87.5966L204.589 88.0966L203.109 81.9955ZM209.086 80.5352L211.105 80.0351L212.684 86.5163L210.665 87.0164L209.086 80.5352Z" fill="white"/>
<path d="M198.81 90.9167L207.125 95.3575L206.765 95.4175L213.381 89.8564L213.661 92.517L208.804 96.5377L208.844 96.9178L214.441 99.8583L214.721 102.419L207.025 98.258L207.365 98.178L200.249 104.359L199.969 101.679L205.326 97.0978L205.286 96.7178L199.089 93.4971L198.81 90.9167Z" fill="white"/>
<path d="M200.129 105.939L214.821 106.4L214.741 108.8L200.049 108.34L200.129 105.939ZM204.846 108.1L206.945 108.16L206.845 111.2C206.825 111.841 206.925 112.381 207.165 112.801C207.405 113.221 207.725 113.561 208.144 113.801C208.564 114.041 209.064 114.161 209.604 114.181C210.163 114.201 210.663 114.101 211.103 113.881C211.542 113.661 211.882 113.361 212.142 112.941C212.402 112.521 212.522 112.001 212.542 111.36L212.642 108.32L214.741 108.38L214.661 111.14C214.621 112.361 214.401 113.361 213.981 114.201C213.561 115.021 212.982 115.641 212.262 116.041C211.542 116.441 210.683 116.641 209.703 116.621H209.384C208.404 116.581 207.565 116.341 206.865 115.901C206.165 115.441 205.626 114.801 205.266 113.941C204.906 113.101 204.726 112.061 204.766 110.86L204.846 108.1Z" fill="white"/>
<path d="M199.189 120.223L201.248 120.543L200.168 127.304L198.109 126.984L199.189 120.223ZM199.509 118.262L213.921 120.563L213.541 122.923L199.129 120.623L199.509 118.262ZM205.485 121.223L207.544 121.543L206.565 127.744L204.506 127.424L205.485 121.223ZM211.542 122.183L213.601 122.503L212.561 129.084L210.502 128.764L211.542 122.183Z" fill="white"/>
<path d="M195.012 137.966L202.488 135.365L201.708 137.966L194.192 140.686L195.012 137.966ZM197.59 129.384L211.663 133.625L210.963 135.926L196.891 131.685L197.59 129.384ZM201.988 132.405L203.927 132.985L202.828 136.626C202.668 137.166 202.628 137.686 202.728 138.146C202.828 138.606 203.047 139.006 203.387 139.326C203.727 139.646 204.147 139.906 204.667 140.066C205.186 140.226 205.666 140.246 206.126 140.166C206.586 140.066 206.985 139.866 207.345 139.546C207.685 139.226 207.945 138.786 208.125 138.226L209.224 134.585L211.223 135.185L210.223 138.526C209.904 139.606 209.464 140.486 208.884 141.167C208.325 141.867 207.645 142.327 206.865 142.567C206.086 142.807 205.186 142.767 204.167 142.467L203.867 142.367C202.848 142.067 202.068 141.587 201.568 140.946C201.069 140.306 200.749 139.546 200.669 138.666C200.589 137.786 200.709 136.806 201.029 135.725L201.988 132.405Z" fill="white"/>
<path d="M192.353 144.566L204.086 149.867L203.107 152.048L191.373 146.747L192.353 144.566ZM205.485 145.787L207.424 146.667L202.867 156.749L200.928 155.869L205.485 145.787Z" fill="white"/>
<path d="M182.318 162.07L196.87 167.051L195.391 169.012L182.518 164.491L183.397 164.051L182.018 165.871L182.258 164.831L190.234 175.773L188.774 177.693L179.899 165.271L182.318 162.07Z" fill="white"/>
<path d="M175.602 170.251L186.216 180.273L184.577 182.034L173.963 172.012L175.602 170.251Z" fill="white"/>
<path d="M170.106 175.753L171.545 177.454L169.006 179.614C168.387 180.134 167.907 180.714 167.587 181.314C167.267 181.935 167.087 182.555 167.047 183.215C167.007 183.855 167.087 184.515 167.327 185.135C167.567 185.775 167.907 186.375 168.387 186.936C168.886 187.536 169.446 187.996 170.026 188.336C170.605 188.656 171.225 188.856 171.865 188.916C172.504 188.976 173.144 188.876 173.804 188.656C174.443 188.436 175.083 188.056 175.703 187.536L178.261 185.375L179.7 187.076L177.302 189.096C176.302 189.956 175.283 190.536 174.283 190.856C173.284 191.176 172.305 191.296 171.365 191.196C170.426 191.096 169.566 190.836 168.767 190.376C167.967 189.936 167.287 189.356 166.688 188.676L166.408 188.336C165.848 187.676 165.428 186.936 165.109 186.055C164.789 185.195 164.669 184.295 164.729 183.335C164.789 182.375 165.049 181.434 165.528 180.494C166.008 179.534 166.748 178.634 167.747 177.794L170.106 175.753ZM171.625 174.473L181.16 185.755L179.321 187.296L169.786 176.013L171.625 174.473Z" fill="white"/>
<path d="M158.292 185.015L159.391 186.775L153.594 190.416L152.495 188.655L158.292 185.015ZM161.69 190.416L162.789 192.176L157.472 195.517L156.373 193.756L161.69 190.416ZM159.971 183.975L167.727 196.337L165.708 197.597L157.952 185.235L159.971 183.975ZM164.948 195.617L166.048 197.377L160.411 200.918L159.311 199.157L164.948 195.617Z" fill="white"/>
<path d="M144.259 192.216C145.458 191.696 146.598 191.436 147.657 191.476C148.716 191.516 149.676 191.756 150.555 192.196C151.435 192.636 152.174 193.197 152.814 193.877C153.434 194.557 153.913 195.257 154.233 195.997L154.413 196.397C154.773 197.197 154.973 198.077 155.033 198.998C155.093 199.918 154.993 200.858 154.693 201.778C154.393 202.698 153.913 203.558 153.214 204.339C152.514 205.119 151.575 205.779 150.415 206.279C149.236 206.799 148.137 207.039 147.097 207.019C146.058 206.999 145.098 206.779 144.219 206.359C143.339 205.939 142.58 205.399 141.94 204.719C141.3 204.039 140.801 203.298 140.461 202.478L140.281 202.078C139.961 201.338 139.761 200.518 139.701 199.598C139.641 198.678 139.721 197.737 140.001 196.797C140.261 195.857 140.741 194.977 141.44 194.177C142.12 193.397 143.059 192.736 144.259 192.216ZM145.138 194.237C144.399 194.557 143.799 194.977 143.339 195.497C142.88 196.017 142.54 196.617 142.32 197.257C142.1 197.897 142.02 198.578 142.08 199.258C142.12 199.958 142.3 200.638 142.6 201.298C142.9 201.998 143.299 202.618 143.779 203.118C144.259 203.618 144.819 204.019 145.418 204.299C146.018 204.579 146.677 204.719 147.377 204.719C148.077 204.719 148.796 204.559 149.516 204.239C150.255 203.919 150.855 203.498 151.335 202.998C151.815 202.498 152.154 201.918 152.374 201.278C152.594 200.638 152.674 199.978 152.614 199.278C152.554 198.578 152.374 197.877 152.074 197.157C151.775 196.477 151.395 195.897 150.915 195.397C150.435 194.897 149.896 194.497 149.276 194.217C148.656 193.937 147.997 193.777 147.297 193.777C146.598 193.777 145.878 193.917 145.138 194.237Z" fill="white"/>
<path d="M129.248 197.659L129.687 199.699L123.011 201.16L122.571 199.119L129.248 197.659ZM130.627 203.9L131.067 205.94L124.93 207.281L124.49 205.24L130.627 203.9ZM131.926 209.901L132.366 211.942L125.869 213.362L125.43 211.321L131.926 209.901ZM131.187 197.239L134.305 211.501L131.986 212.002L128.868 197.739L131.187 197.239Z" fill="white"/>
<path d="M118.216 199.618L118.376 201.838L115.037 202.079C114.218 202.139 113.518 202.319 112.899 202.619C112.279 202.919 111.759 203.319 111.34 203.819C110.92 204.319 110.62 204.899 110.44 205.539C110.26 206.179 110.18 206.879 110.24 207.62C110.3 208.4 110.46 209.1 110.74 209.7C111.02 210.3 111.4 210.82 111.879 211.24C112.359 211.66 112.939 211.96 113.598 212.16C114.258 212.36 114.998 212.42 115.797 212.36L119.135 212.12L119.295 214.341L116.157 214.581C114.838 214.681 113.678 214.561 112.679 214.241C111.679 213.921 110.82 213.441 110.12 212.801C109.421 212.16 108.881 211.44 108.501 210.62C108.121 209.8 107.901 208.92 107.821 208.02L107.782 207.58C107.722 206.719 107.821 205.859 108.081 204.979C108.341 204.099 108.761 203.299 109.361 202.559C109.96 201.818 110.74 201.218 111.679 200.718C112.619 200.218 113.758 199.938 115.077 199.838L118.216 199.618ZM120.195 199.458L121.274 214.201L118.875 214.381L117.796 199.638L120.195 199.458Z" fill="white"/>
<path d="M104.98 200.218L104.42 214.8L102.021 214.7L102.581 200.118L104.98 200.218Z" fill="white"/>
<path d="M98.9252 212.52L98.6453 214.621L87.6914 213.16L87.9712 211.06L98.9252 212.52ZM96.2667 199.578L94.5876 212.34L92.2089 212.04L93.888 199.278L96.2667 199.578Z" fill="white"/>
<path d="M81.9542 196.336C83.2135 196.696 84.2529 197.236 85.0325 197.936C85.8121 198.636 86.4117 199.436 86.8115 200.357C87.2113 201.257 87.4312 202.177 87.4711 203.097C87.5111 204.017 87.4312 204.857 87.2113 205.638L87.1114 206.038C86.8715 206.878 86.4717 207.678 85.932 208.438C85.3923 209.198 84.7127 209.838 83.9131 210.358C83.1136 210.879 82.1741 211.219 81.1546 211.379C80.1152 211.539 78.9759 211.439 77.7565 211.099C76.5172 210.739 75.5178 210.238 74.7182 209.538C73.9387 208.858 73.319 208.078 72.9192 207.198C72.4995 206.318 72.2596 205.418 72.1996 204.497C72.1397 203.577 72.2396 202.677 72.4795 201.837L72.5994 201.417C72.8193 200.657 73.1991 199.876 73.7388 199.136C74.2785 198.396 74.9381 197.716 75.7377 197.156C76.5372 196.596 77.4767 196.236 78.5161 196.056C79.5555 195.876 80.6949 195.976 81.9542 196.336ZM81.3545 198.456C80.595 198.236 79.8554 198.176 79.1558 198.296C78.4561 198.396 77.8165 198.636 77.2568 198.996C76.6771 199.356 76.1974 199.816 75.7976 200.397C75.3978 200.957 75.098 201.597 74.8981 202.297C74.6782 203.037 74.5983 203.757 74.6583 204.457C74.6982 205.157 74.8781 205.818 75.178 206.418C75.4778 207.018 75.8776 207.538 76.4173 207.998C76.957 208.438 77.6166 208.778 78.3762 208.998C79.1358 209.218 79.8754 209.278 80.575 209.178C81.2746 209.078 81.8942 208.858 82.4739 208.498C83.0536 208.138 83.5333 207.678 83.9331 207.118C84.3329 206.538 84.6527 205.898 84.8526 205.137C85.0525 204.437 85.1324 203.737 85.0925 203.037C85.0525 202.337 84.8726 201.697 84.5728 201.077C84.2729 200.457 83.8532 199.936 83.3334 199.476C82.8137 199.016 82.1141 198.676 81.3545 198.456Z" fill="white"/>
<path d="M68.9413 197.538L68.0818 199.359L64.6437 197.738C64.124 197.498 63.6243 197.398 63.1646 197.418C62.6848 197.458 62.265 197.618 61.8853 197.898C61.5055 198.178 61.2056 198.559 60.9658 199.059C60.7459 199.539 60.626 200.019 60.6659 200.479C60.6859 200.939 60.8258 201.379 61.1057 201.779C61.3855 202.179 61.7653 202.499 62.285 202.739L65.7231 204.36L64.8436 206.24L61.7054 204.76C60.6859 204.28 59.8864 203.72 59.2867 203.059C58.687 202.399 58.3272 201.659 58.2073 200.859C58.0874 200.059 58.2473 199.159 58.707 198.199L58.8469 197.898C59.3067 196.938 59.8864 196.238 60.586 195.818C61.2856 195.398 62.0851 195.218 62.9647 195.258C63.8442 195.298 64.8036 195.578 65.8031 196.038L68.9413 197.538ZM64.4638 189.797L65.923 197.578L63.4644 196.418L61.8853 188.577L64.4638 189.797ZM72.5593 193.618L66.2828 206.92L64.124 205.9L70.3805 192.597L72.5593 193.618Z" fill="white"/>
<circle cx="29.0975" cy="168.836" r="3.76844" fill="#15091D" stroke="white" stroke-opacity="0.2" stroke-width="2"/>
<circle cx="187.421" cy="47.9891" r="3.76844" fill="#15091D" stroke="white" stroke-opacity="0.2" stroke-width="2"/>
</g>
<defs>
<clipPath id="clip0_466_613">
<rect width="214.801" height="214.801" fill="white"/>
</clipPath>
</defs>
</svg>
